<svg width="100" height="100" xmlns="http://www.w3.org/2000/svg"><g fill="none"><path d="M0 0h100v100H0z" fill="#001F6D"/><g fill="#FFF"><path d="M56.336 54.321c1.068.005 2.004.485 2.671 1.175.67.692 1.116 1.633 1.116 2.686a3.875 3.875 0 01-3.812 3.806c-2.07-.01-3.852-1.64-3.876-3.806.028-2.154 1.778-3.843 3.9-3.86m-.024-7.592c-2.07-.012-3.852-1.641-3.875-3.809.026-2.154 1.778-3.84 3.9-3.861 1.068.005 2.003.485 2.67 1.175.671.695 1.117 1.635 1.117 2.686a3.88 3.88 0 01-3.812 3.809m-11.499 7.591c1.07.005 2.004.485 2.672 1.175.67.692 1.115 1.633 1.115 2.686a3.875 3.875 0 01-3.81 3.806c-2.071-.01-3.854-1.64-3.878-3.806.028-2.154 1.778-3.843 3.901-3.86m-.024-7.592c-2.07-.012-3.853-1.641-3.877-3.809.028-2.154 1.779-3.84 3.902-3.861 1.068.005 2.003.485 2.67 1.175.671.695 1.116 1.635 1.116 2.686a3.879 3.879 0 01-3.81 3.809"/><path d="M46.353 71.854c-7.835-2.365-9.724-8.989-11.94-15.916-2.366-7.418-3.939-14.01.703-19.245L33.784 35.5c-6.994 7.012-8.554 14.684-6.068 22.467 3.044 9.536 9.651 14.264 18.202 15.909l.435-2.023zm20.267-6.176c6.026-6.257 8.665-13.914 5.621-23.45-2.489-7.783-8.217-13.146-17.994-14.853l-.397 1.74c6.827 1.61 9.379 7.891 11.745 15.306 2.216 6.927 4.517 13.42-.497 19.86l1.522 1.397z"/></g></g></svg>