<svg width="100" height="100" xmlns="http://www.w3.org/2000/svg"><g fill="none"><path d="M0 0h100v100H0z" fill="#001F6D"/><g fill="#FFF"><path d="M42.775 64.632c-2.34 0-2.34-1.065-2.34-1.596 0-.745.64-2.874 2.554-7.877.106-.215.215-.32.215-.53l1.278-3.833 4.258-11.4h.106L52.9 50.688l4.8-.106-6.427-17.052c-.216-.53-.426-.53-.745-.53-.53 0-.745 0-.85.426-4.47 10.963-7.983 20.756-10.75 28.845-.64 1.8-1.5 2.34-2.34 2.34-1.278 0-1.705.215-1.705.64 0 .53.106.745.32.745.32 0 .85-.106 3.62-.106 5.43 0 6.068.106 6.387.106.425 0 .53-.215.53-.745 0-.425-.215-.64-2.98-.64l.015.021zm23.1 0c-1.81 0-2.768-.53-3.513-2.13-.85-1.8-1.915-4.578-3.088-7.558-1.596 0-3.3 0-4.8-.106l3.195 8.834c0 .745-.64.96-2.45.96-.96 0-1.915.106-1.915.53 0 .424 0 .85.215.85.32 0 .64-.106 6.813-.106l6.387.106c.425 0 .53-.53.53-.85 0-.425-.96-.53-1.384-.53h.01z"/><path d="M18 52.844c0-1.377 14.272-2.485 32-2.485s32 1.108 32 2.485c0 1.377-14.27 2.486-32 2.486s-32-1.11-32-2.486z"/></g></g></svg>