<svg width="100" height="100" xmlns="http://www.w3.org/2000/svg"><g fill="none"><path d="M0 0h100v100H0z" fill="#001F6D"/><path d="M54.096 58.473c-7.182 0-11.137-4.215-11.137-11.361 0-7.332 4.137-11.182 11.137-11.182 7.004 0 11.134 3.85 11.134 11.182 0 7.146-3.948 11.36-11.134 11.36" fill="#366FFF"/><path d="M56.096 50.473c-4.312 0-6.681-2.478-6.681-6.682 0-4.308 2.478-6.573 6.681-6.573 4.204 0 6.678 2.265 6.678 6.573 0 4.204-2.37 6.682-6.678 6.682" fill="#FFF"/><path d="M57.096 47.473c-2.583 0-4.007-1.559-4.007-4.199 0-2.71 1.487-4.132 4.007-4.132 2.524 0 4.011 1.423 4.011 4.132 0 2.64-1.424 4.199-4.01 4.199" fill="#366FFF"/><path d="M51.096 73.473c-4.312 0-6.681-2.478-6.681-6.678 0-4.312 2.481-6.573 6.681-6.573 4.204 0 6.678 2.26 6.678 6.573 0 4.2-2.37 6.678-6.678 6.678" fill="#FFF"/><path d="M50.096 72.473c-2.586 0-4.007-1.559-4.007-4.199 0-2.71 1.487-4.132 4.007-4.132 2.524 0 4.011 1.423 4.011 4.132 0 2.64-1.424 4.199-4.01 4.199" fill="#366FFF"/><path d="M49.596 70.473c-1.554 0-2.408-.89-2.408-2.405 0-1.55.896-2.362 2.408-2.362s2.405.812 2.405 2.362c0 1.516-.85 2.405-2.405 2.405m-9.5-34c-4.308 0-6.678-2.478-6.678-6.682 0-4.312 2.478-6.573 6.678-6.573 4.204 0 6.685 2.261 6.685 6.573 0 4.204-2.373 6.682-6.685 6.682" fill="#FFF"/><path d="M41.096 35.473c-2.583 0-4.007-1.559-4.007-4.199 0-2.71 1.487-4.132 4.007-4.132 2.524 0 4.011 1.423 4.011 4.132 0 2.64-1.424 4.199-4.01 4.199" fill="#366FFF"/><path d="M41.596 34.473c-1.55 0-2.404-.893-2.404-2.405 0-1.55.892-2.366 2.404-2.366s2.405.816 2.405 2.366c0 1.512-.854 2.405-2.405 2.405" fill="#FFF"/><path d="M50.096 23.473c-2.586 0-4.01-1.559-4.01-4.199 0-2.71 1.49-4.132 4.01-4.132 2.524 0 4.011 1.423 4.011 4.132 0 2.64-1.424 4.199-4.01 4.199" fill="#366FFF"/><path d="M49.596 22.473c-1.55 0-2.408-.893-2.408-2.405 0-1.55.893-2.366 2.408-2.366 1.512 0 2.405.816 2.405 2.366 0 1.512-.854 2.405-2.405 2.405" fill="#FFF"/><path d="M48.096 84.473c-2.59 0-4.01-1.559-4.01-4.202 0-2.71 1.487-4.133 4.01-4.133 2.52 0 4.004 1.423 4.004 4.133 0 2.643-1.42 4.202-4.004 4.202" fill="#366FFF"/><path d="M46.846 83.473c-1.661 0-2.576-.956-2.576-2.576 0-1.67.956-2.54 2.576-2.54 1.624 0 2.573.87 2.573 2.54 0 1.62-.912 2.576-2.573 2.576" fill="#FFF"/></g></svg>