<svg viewBox="0 0 284 284" xmlns="http://www.w3.org/2000/svg" fill-rule="evenodd" clip-rule="evenodd" stroke-linejoin="round" stroke-miterlimit="1.414"><path d="M283.465 142.267c0 78.277-63.456 141.732-141.733 141.732S0 220.544 0 142.267C0 63.991 63.455.535 141.732.535s141.733 63.456 141.733 141.732z" fill="url(#_Radial1)"/><path d="M214.994 82.54a9.228 9.228 0 01-13.052 0 9.229 9.229 0 010-13.053 9.23 9.23 0 0113.052 0 9.229 9.229 0 010 13.053zm14.52-28.522c-18.298 2.446-35.572 10.416-49.191 24.035-4.323 4.323-9.525 10.464-14.708 17.434l-10.463.742a9.71 9.71 0 01-2.597-.164 31.611 31.611 0 004.125-9.78 1.662 1.662 0 00-.424-1.569 1.662 1.662 0 00-1.568-.425 31.549 31.549 0 00-15.141 8.431c-3.108 3.109-7.535 8.808-10.644 14.222-.394.683-.271 1.55.151 2.387a10.516 10.516 0 00-1.448 3.37.552.552 0 00.141.523.557.557 0 00.523.142 10.55 10.55 0 003.37-1.449c.837.421 1.704.544 2.388.151 2.989-1.717 6.063-3.835 8.742-5.911a25.26 25.26 0 013.092-1.161l11.114 2.977a183.108 183.108 0 00-6.183 10.341c-1.029 1.867-.671 4.268.508 6.639-2.392 2.956-4.94 6.558-6.942 10.044-.394.684-.271 1.552.15 2.388a10.538 10.538 0 00-1.448 3.37.557.557 0 00.141.523c.134.133.33.187.523.141a10.535 10.535 0 003.37-1.447c.837.42 1.704.543 2.388.15 3.487-2.003 7.088-4.551 10.044-6.942 2.372 1.179 4.773 1.538 6.64.507a182.142 182.142 0 0010.341-6.182l2.978 11.114a25.39 25.39 0 01-1.16 3.09c-2.077 2.679-4.196 5.754-5.913 8.744-.392.684-.27 1.551.151 2.388a10.538 10.538 0 00-1.448 3.37.552.552 0 00.141.523c.134.134.33.187.523.141a10.53 10.53 0 003.371-1.448c.835.421 1.703.544 2.386.151 5.414-3.109 11.114-7.536 14.222-10.644a31.566 31.566 0 008.432-15.139 1.67 1.67 0 00-.424-1.569 1.664 1.664 0 00-1.57-.425 31.631 31.631 0 00-9.78 4.125 9.744 9.744 0 01-.164-2.596l.742-10.465c6.97-5.182 13.111-10.384 17.434-14.707 13.618-13.618 21.589-30.893 24.034-49.189a.845.845 0 00-.949-.951z" fill="#fff" fill-rule="nonzero"/><path d="M204.117 71.663a6.153 6.153 0 108.702 8.702 6.153 6.153 0 00-8.702-8.702zm-3.871 44.442c10.543 23.621 6.206 52.325-13.147 71.678a64.277 64.277 0 01-40.114 18.598 17.125 17.125 0 01-13.536-4.972 17.304 17.304 0 01-1.484-1.693 17.106 17.106 0 01-2.548-16.235c5.607-15.686 15.052-30.084 21.517-38.864-1.024.393-2.108.607-3.239.473a15.16 15.16 0 01-2.871.986 5.31 5.31 0 01-5.004-1.416 5.31 5.31 0 01-1.415-5.001 15.29 15.29 0 01.985-2.875c-.175-1.471.099-2.912.821-4.169.054-.096.128-.199.184-.295-8.642 6.458-23.529 16.418-39.876 22.262-5.527 1.976-11.599 1.028-16.243-2.535a17.139 17.139 0 01-6.658-15.032 64.277 64.277 0 0118.598-40.114c19.528-19.528 48.575-23.763 72.314-12.853a167.517 167.517 0 013.238-3.796c-9.09-4.411-19.254-6.956-30.036-6.956-38.092 0-68.972 30.879-68.972 68.971 0 38.093 30.88 68.973 68.972 68.973s68.972-30.88 68.972-68.973c0-10.53-2.429-20.471-6.649-29.399a168.433 168.433 0 01-3.809 3.237z" fill="#fff" fill-rule="nonzero"/><path d="M214.994 82.54a9.228 9.228 0 01-13.052 0 9.229 9.229 0 010-13.053 9.23 9.23 0 0113.052 0 9.229 9.229 0 010 13.053zm14.52-28.522c-18.298 2.446-35.572 10.416-49.191 24.035-4.323 4.323-9.525 10.464-14.708 17.434l-10.463.742a9.71 9.71 0 01-2.597-.164 31.611 31.611 0 004.125-9.78 1.662 1.662 0 00-.424-1.569 1.662 1.662 0 00-1.568-.425 31.549 31.549 0 00-15.141 8.431c-3.108 3.109-7.535 8.808-10.644 14.222-.394.683-.271 1.55.151 2.387a10.516 10.516 0 00-1.448 3.37.552.552 0 00.141.523.557.557 0 00.523.142 10.55 10.55 0 003.37-1.449c.837.421 1.704.544 2.388.151 2.989-1.717 6.063-3.835 8.742-5.911a25.26 25.26 0 013.092-1.161l11.114 2.977a183.108 183.108 0 00-6.183 10.341c-1.029 1.867-.671 4.268.508 6.639-2.392 2.956-4.94 6.558-6.942 10.044-.394.684-.271 1.552.15 2.388a10.538 10.538 0 00-1.448 3.37.557.557 0 00.141.523c.134.133.33.187.523.141a10.535 10.535 0 003.37-1.447c.837.42 1.704.543 2.388.15 3.487-2.003 7.088-4.551 10.044-6.942 2.372 1.179 4.773 1.538 6.64.507a182.142 182.142 0 0010.341-6.182l2.978 11.114a25.39 25.39 0 01-1.16 3.09c-2.077 2.679-4.196 5.754-5.913 8.744-.392.684-.27 1.551.151 2.388a10.538 10.538 0 00-1.448 3.37.552.552 0 00.141.523c.134.134.33.187.523.141a10.53 10.53 0 003.371-1.448c.835.421 1.703.544 2.386.151 5.414-3.109 11.114-7.536 14.222-10.644a31.566 31.566 0 008.432-15.139 1.67 1.67 0 00-.424-1.569 1.664 1.664 0 00-1.57-.425 31.631 31.631 0 00-9.78 4.125 9.744 9.744 0 01-.164-2.596l.742-10.465c6.97-5.182 13.111-10.384 17.434-14.707 13.618-13.618 21.589-30.893 24.034-49.189a.845.845 0 00-.949-.951z" fill="#fff" fill-rule="nonzero"/><path d="M204.117 71.663a6.153 6.153 0 108.702 8.702 6.153 6.153 0 00-8.702-8.702zm-79.752 44.943l-.018-.022c-.007-.007-.016-.011-.023-.018a5.275 5.275 0 01-1.26-2.076c-6.582 6.723-11.564 12.918-15.248 18.625 5.707-3.684 11.901-8.665 18.625-15.248a5.278 5.278 0 01-2.076-1.261zm43.51 43.511c-.007-.007-.011-.016-.017-.023-.008-.007-.016-.011-.024-.017a5.283 5.283 0 01-1.26-2.078c-6.583 6.724-11.564 12.919-15.248 18.626 5.706-3.684 11.902-8.666 18.625-15.248a5.299 5.299 0 01-2.076-1.26zM139.036 46.331c7.238 1.482 12.938 7.183 14.42 14.421 1.482-7.238 7.183-12.939 14.42-14.421-7.237-1.482-12.938-7.182-14.42-14.42-1.482 7.238-7.182 12.938-14.42 14.42zM72.76 72.482a15.093 15.093 0 0111.73 11.731 15.096 15.096 0 0111.731-11.731 15.096 15.096 0 01-11.731-11.73 15.094 15.094 0 01-11.73 11.73zM198.974 211.24a15.094 15.094 0 0111.73 11.73 15.093 15.093 0 0111.731-11.73 15.096 15.096 0 01-11.731-11.731 15.096 15.096 0 01-11.73 11.731zm-57.919-23.649a6.812 6.812 0 015.293 5.293 6.81 6.81 0 015.293-5.293 6.812 6.812 0 01-5.293-5.293 6.813 6.813 0 01-5.293 5.293zm-38.532-83.687a6.81 6.81 0 015.293 5.293 6.81 6.81 0 015.293-5.293 6.812 6.812 0 01-5.293-5.293 6.812 6.812 0 01-5.293 5.293z" fill="#fff" fill-rule="nonzero"/><defs><radialGradient id="_Radial1" cx="0" cy="0" r="1" gradientUnits="userSpaceOnUse" gradientTransform="rotate(.327 -23869.89 25002.88) scale(228.05772)"><stop offset="0" stop-color="#203365"/><stop offset="1" stop-color="#000121"/></radialGradient></defs></svg>