<svg width="100" height="100" xmlns="http://www.w3.org/2000/svg"><g fill="none"><path d="M0 0h100v100H0z" fill="#001F6D"/><path d="M65.012 45.877V29.674L50 21l-15.012 8.674v16.204L21 53.96v17.366L36.012 80 50 71.918 63.988 80 79 71.326V53.96l-13.988-8.083zM50 53l-12-7 12-7 12 7-12 7zm-13-5l12 7v14l-12-7V48zm14 7l12-7v14l-12 7V55zM37 31.382L50 24l13 7.382V45l-13-7.382L37 45V31.382zM23 70.595V55.803L34.977 49v14.772L48 71.178 36.003 78 23 70.595zm54 .019L63.997 78 52 71.178l13.023-7.406V49L77 55.803v14.81z" fill="#FFF"/></g></svg>